<?xml version="1.0" encoding="utf-8"?>
<!-- Generator: Adobe Illustrator 19.2.1, SVG Export Plug-In . SVG Version: 6.00 Build 0)  -->
<svg version="1.1" id="layer" xmlns="http://www.w3.org/2000/svg" xmlns:xlink="http://www.w3.org/1999/xlink" x="0px" y="0px"
	 viewBox="0 0 652 652" style="enable-background:new 0 0 652 652;" xml:space="preserve">
<style type="text/css">
	.st0{fill:#005E98;}
</style>
<path class="st0" d="M389.2,370.9c-6.4,8-16.9,14-25.6,14c-13.3,0-20.4-6-20.4-19.4c0-21.4,28.8-26,46-30.9 M404.8,323.9
	c0-19.2-13.5-29.9-34.3-29.9c-12.6,0-25.9,4.3-35,11.1v9.3c5.3-6,16-13.8,28.9-13.8c17.9,0,24.9,7.6,24.9,23.3l-0.9,6
	c-6.9,4.9-62.5,5.8-62.5,38.5c0,14.2,12.8,23.5,27.9,23.5c16.7,0,24.5-4.5,35.7-14.6c1.1,7.8,6.3,11.9,15.5,12.3
	C404.9,389.6,404.8,331.8,404.8,323.9"/>
<path class="st0" d="M76.4,325.3c18.9-5.4,29.3-18.4,29.3-37.4c0-18.4-16.4-36.8-51.6-36.8H20.7c0,0,0.1,87.8,0,121.8v0.1
	c0,9.5,6.3,17.1,15.8,17.1h0V258.1l-4.2-1.1h10c32.1-0.7,47.3,16.1,47.3,32.5c0,16.5-11.7,30.9-31.9,35.1c0,0,28.7,44.4,34,52.5
	c5.2,7.6,14.7,13.3,22.9,13.3l0,0l0,0h5.7C104.4,367.7,86.2,342.1,76.4,325.3"/>
<path class="st0" d="M605.1,370.9c-6.4,8-16.9,14-25.6,14c-13.3,0-20.4-6-20.4-19.4c0-21.4,28.8-26,46-30.9 M620.6,323.9
	c0-19.2-13.5-29.9-34.3-29.9c-12.6,0-25.9,4.3-35,11.1v9.3c5.3-6,16-13.8,28.9-13.8c17.9,0,24.9,7.6,24.9,23.3l-0.9,6
	c-6.9,4.9-62.5,5.8-62.5,38.5c0,14.2,12.8,23.5,27.9,23.5c16.7,0,24.5-4.5,35.7-14.6c1.1,7.8,6.3,11.9,15.4,12.3
	C620.7,389.5,620.6,327.3,620.6,323.9"/>
<path class="st0" d="M483.9,295.6c-18.6,0-31,8.9-38.2,22.6v-5.8c-0.8-7.7-7.3-13.8-15.3-13.8h0c0,8.1-0.1,77.9-0.1,77.9
	c1,7.5,7.5,13.3,15.2,13.3h0c0-10.9,0.1-46.8,0.1-46.8c0-23.3,12.4-40.6,32.1-40.6c23.1,0,26.5,16.5,26.5,29.9l0,43.7
	c0.8,7.7,7.4,13.8,15.3,13.8h0c0-10.8,0.1-58.9,0.1-58.9C519.7,306.5,507.1,295.6,483.9,295.6"/>
<path class="st0" d="M298.6,387.3c-17.4,0-18.3-14-18.3-26.4v-56.3l-4.4-1.2h27.7v-5h-23.5v-9c-0.8-7.7-7.3-13.8-15.3-13.8h0
	c0,7.2,0,14.8,0,22.8h-15.4v5h15.3v64.7c0,14.2,8.9,23.1,25,23.1c5.9,0,12.1-1,17.9-2.7v-2.5C304.5,386.7,301.6,387.3,298.6,387.3"
	/>
<path class="st0" d="M184.5,388.6c-0.3-6.1-1.1-12.1-2.5-17.8c1-3.5,2.3-6.9,3.8-10.2c1,3,1.9,6,2.6,9
	C186.5,375.6,185.2,381.9,184.5,388.6 M177.5,355.9c1-2.5,2.1-4.9,3.3-7.3c1.2,2.4,2.3,4.8,3.3,7.3c-1.3,3.2-2.4,6.4-3.3,9.8
	C179.8,362.3,178.7,359.1,177.5,355.9 M177,388.6c-0.6-6.6-2-13-3.9-19c0.7-3.1,1.6-6.1,2.6-9c1.5,3.3,2.7,6.7,3.8,10.2
	C178.2,376.5,177.4,382.5,177,388.6 M236.5,341.7c-0.3-2.8-0.8-5.6-1.5-8.2c-20.7,6.2-37,25.4-42.4,49.9c-0.3-4.5-0.8-9-1.6-13.3
	V370l0.1-0.3c1.3-3.3,13.1-32.1,42.6-40.2c-0.8-2.6-1.7-5.1-2.8-7.4c-18.3,6.7-33.1,22.4-41,42.8c-0.6-2.8-1.4-5.7-2.2-8.4l0,0l0,0
	l0-0.1c8.4-16.1,22.5-33,40.7-38.5c-1.4-2.3-2.9-4.7-4.7-6.7c-16.2,7.8-29.5,22.1-37.8,40.1c-0.9-2.4-1.8-4.8-2.8-7.1h0v0
	c7.6-15.3,21.6-29.4,36.7-36.8c-2.2-2-4.5-3.7-7-5.4c-13.2,8.7-24.4,21.5-32.2,36.9c-7.7-15.3-18.8-28-31.9-36.7
	c-2.6,1.6-5,3.3-7.3,5.2c25.5,12.3,36.7,36.8,36.7,36.8c-1,2.3-2,4.7-2.8,7.1c-8.3-18.1-21.7-32.4-38-40.2c-2.5,2.6-3.8,4.4-5.3,6.5
	c26.8,7.6,41.5,38.9,41.5,38.9c-0.9,2.8-1.6,5.6-2.2,8.5c-8-20.6-23.3-36.6-41.8-43.2c-1.2,2.3-2.2,4.8-3.1,7.4
	c32.2,8.2,43.8,40.9,43.8,40.9c-0.8,4.3-1.3,8.8-1.6,13.3c-5.4-24.9-22.2-44.4-43.4-50.2c-0.6,2.7-0.9,5.5-1,8.4
	c22.5,5.2,40,24.5,44,48.7l2.2,0.4c0-5,0.9-13,1.4-16.1l0.1,0.3l0-0.1c1.5,5.4,2.6,11,3.6,16.6l2.5,0.2c0.2-4.2,0.9-13.3,2.5-18
	c0,0,2.3,11.1,2.6,18.1l0.9,0l1.5-0.1c1-5.7,2.2-11.3,3.7-16.9c0.8,5.3,1.4,10.8,1.5,16.2l2.2-0.4
	C197,366.2,214.3,347.1,236.5,341.7 M182,299.4c6.9,0,13.5,1.9,19.4,5.1c2.8-2.4,5.1-4.2,6.5-5.2c-7.6-3.6-16.3-5.5-25.9-5.5
	c-10.1,0-19.3,2.1-27.3,5.6c1.5,1.1,3.8,2.9,6.5,5.2C167.4,301.3,174.4,299.4,182,299.4 M224.6,352.5c-3.1,15.3-13.1,25.7-24.6,30.9
	c-0.8,2.2-1.3,4-1.6,5.3c20.7-6.2,36.2-22.1,38.3-41.4C232.1,348.6,228.1,350.4,224.6,352.5 M137.6,352.7c-3.7-2.2-7.9-4.1-12.7-5.6
	c2.1,19.6,17.8,35.6,38.7,41.7c-0.4-1.4-0.9-3.5-1.9-6.1C149.7,376.9,140.7,365.9,137.6,352.7"/>
</svg>
